<?xml version="1.0" encoding="UTF-8"?>
<svg width="940px" height="1236px" viewBox="0 0 940 1236" version="1.1" xmlns="http://www.w3.org/2000/svg" xmlns:xlink="http://www.w3.org/1999/xlink">
    <title>v2.1.0</title>
    <defs>
        <rect id="path-1" x="0" y="0" width="40" height="35.7894737"></rect>
    </defs>
    <g id="v2.1.0" stroke="none" stroke-width="1" fill="none" fill-rule="evenodd">
        <rect fill="#181818" x="0" y="0" width="940" height="1236"></rect>
        <rect id="Rectangle" fill="#111111" x="30" y="157" width="892" height="34"></rect>
        <rect id="bg" stroke="#7E7E7E" x="18.5" y="245.5" width="903" height="951" rx="5"></rect>
        <path d="M919.00318,66 C920.107715,66 921.107796,66.4461724 921.831287,67.1698212 C922.55374,67.8924309 923,68.8914907 923,69.9979064 L923,69.9979064 L923,138.002094 C923,139.105208 922.551297,140.103776 921.828194,140.827036 C921.10401,141.551378 920.104365,142 919.00318,142 L919.00318,142 L810,142 L810,66 Z" id="bg-copy-8" stroke="#7E7E7E" stroke-width="2"></path>
        <rect id="bg-copy-7" stroke="#7E7E7E" stroke-width="2" x="697" y="66" width="113" height="76"></rect>
        <rect id="bg-copy-6" stroke="#7E7E7E" stroke-width="2" x="584" y="66" width="113" height="76"></rect>
        <rect id="bg-copy-5" stroke="#7E7E7E" stroke-width="2" x="471" y="66" width="113" height="76"></rect>
        <rect id="bg-copy-4" stroke="#7E7E7E" stroke-width="2" x="358" y="66" width="113" height="76"></rect>
        <rect id="bg-copy-3" stroke="#7E7E7E" stroke-width="2" x="245" y="66" width="113" height="76"></rect>
        <rect id="bg-copy-2" stroke="#7E7E7E" stroke-width="2" x="132" y="66" width="113" height="76"></rect>
        <path d="M132,66 L132,142 L22.9968199,142 C21.8922851,142 20.8922043,141.553828 20.1687128,140.830179 C19.4462602,140.107569 19,139.108509 19,138.002094 L19,138.002094 L19,69.9979064 C19,68.8947917 19.448703,67.896224 20.1718057,67.1729641 C20.8959904,66.4486219 21.895635,66 22.9968199,66 L22.9968199,66 L132,66 Z" id="bg-copy" stroke="#7E7E7E" stroke-width="2"></path>
        <text id="WARRANTY-ORDINARY" font-family="HelveticaNeue-Italic, Helvetica Neue" font-size="17" font-style="italic" font-weight="normal" letter-spacing="0.5" fill="#A0A0A0">
            <tspan x="40" y="180">WARRANTY ORDINARY</tspan>
        </text>
        <g id="Group-4" transform="translate(301.500000, 104.060976) rotate(-17.000000) translate(-301.500000, -104.060976) translate(286.000000, 81.000000)">
            <g id="Group-3">
                <circle id="Oval-Copy-2" fill="#DDDDDD" cx="7.93902439" cy="7.93902439" r="7.93902439"></circle>
                <circle id="Oval-Copy-3" fill="#181818" cx="7.93902439" cy="7.93902439" r="2.64634146"></circle>
            </g>
            <g id="Group-3-Copy" transform="translate(7.560976, 15.121951)">
                <circle id="Oval-Copy-2" fill="#DDDDDD" cx="7.93902439" cy="7.93902439" r="7.93902439"></circle>
                <circle id="Oval-Copy-3" fill="#181818" cx="7.93902439" cy="7.93902439" r="2.64634146"></circle>
            </g>
            <g id="Group-3-Copy-2" transform="translate(15.121951, 30.243902)">
                <circle id="Oval-Copy-2" fill="#DDDDDD" cx="7.93902439" cy="7.93902439" r="7.93902439"></circle>
                <circle id="Oval-Copy-3" fill="#181818" cx="7.93902439" cy="7.93902439" r="2.64634146"></circle>
            </g>
        </g>
        <rect id="bg-copy-8" stroke="#D2D2D2" stroke-width="2" x="795" y="1107" width="112" height="76" rx="4"></rect>
        <rect id="bg-copy-8" stroke="#D2D2D2" stroke-width="2" x="675" y="1107" width="112" height="76" rx="4"></rect>
        <rect id="bg-copy-8" stroke="#D2D2D2" stroke-width="2" opacity="0.3" x="555" y="1107" width="112" height="76" rx="4"></rect>
        <rect id="bg-copy-8" stroke="#D2D2D2" stroke-width="2" x="435" y="1107" width="112" height="76" rx="4"></rect>
        <rect id="Rectangle-1080-Copy-4" fill="#222222" x="28" y="258" width="224" height="38"></rect>
        <rect id="Rectangle-1080-Copy-7" fill="#222222" x="272" y="258" width="640" height="38"></rect>
        <rect id="Rectangle-1080-Copy-8" fill="#222222" x="-10" y="0" width="957" height="38"></rect>
        <text id="FILTERS" font-family="HelveticaNeue-Medium, Helvetica Neue" font-size="20" font-weight="400" letter-spacing="0.5" fill="#A0A0A0">
            <tspan x="35" y="285">FILTERS</tspan>
        </text>
        <text id="PREVIEW" font-family="HelveticaNeue-Medium, Helvetica Neue" font-size="20" font-weight="400" letter-spacing="0.5" fill="#A0A0A0">
            <tspan x="282" y="285">PREVIEW</tspan>
        </text>
        <line x1="263" y1="259" x2="263" y2="1184" id="Line" stroke="#7E7E7E" stroke-linecap="square"></line>
        <rect id="Rectangle-622-Copy-36" fill="#0079FF" x="45" y="239" width="80" height="5.88999987"></rect>
        <text id="LIST" font-family="HelveticaNeue-Medium, Helvetica Neue" font-size="24" font-weight="400" letter-spacing="0.6" fill="#FFFFFF">
            <tspan x="60" y="232">LIST</tspan>
        </text>
        <text id="EDIT" font-family="HelveticaNeue-Medium, Helvetica Neue" font-size="24" font-weight="400" letter-spacing="0.6" fill="#A0A0A0">
            <tspan x="332" y="232">EDIT</tspan>
        </text>
        <text id="MDC" font-family="HelveticaNeue-Medium, Helvetica Neue" font-size="24" font-weight="400" letter-spacing="0.6" fill="#A0A0A0">
            <tspan x="192" y="232">MDC</tspan>
        </text>
        <text id="Download" font-family="HelveticaNeue, Helvetica Neue" font-size="18" font-weight="normal" letter-spacing="0.5" fill="#A0A0A0">
            <tspan x="35" y="327">Download</tspan>
        </text>
        <rect id="Rectangle-1022-Copy-7" stroke="#A0A0A0" stroke-width="2" fill="#181818" x="36" y="339" width="212" height="32" rx="4"></rect>
        <text id="Search" font-family="HelveticaNeue, Helvetica Neue" font-size="18" font-weight="normal" letter-spacing="0.5" fill="#A0A0A0">
            <tspan x="35" y="407">Search</tspan>
        </text>
        <rect id="Rectangle-1022-Copy-8" stroke="#A0A0A0" stroke-width="2" x="36" y="419" width="212" height="32" rx="4"></rect>
        <text id="Extended" font-family="HelveticaNeue, Helvetica Neue" font-size="18" font-weight="normal" letter-spacing="0.5" fill="#A0A0A0">
            <tspan x="333" y="1154">Extended</tspan>
        </text>
        <rect id="Rectangle-1022-Copy-13" stroke="#A0A0A0" stroke-width="2" x="292" y="1133" width="28" height="28" rx="4"></rect>
        <text id="Morgan---Spreader-So" font-family="HelveticaNeue, Helvetica Neue" font-size="17" font-weight="normal" fill="#A0A0A0">
            <tspan x="15" y="24">Morgan - Spreader Software</tspan>
        </text>
        <g id="settings_black_24dp" transform="translate(508.000000, 84.000000)" fill="#DDDDDD" fill-rule="nonzero">
            <path d="M35,20 C35,19.54 34.98,19.1 34.94,18.64 L38.66,15.82 C39.46,15.22 39.68,14.1 39.18,13.22 L35.44,6.76 C34.94,5.88 33.86,5.52 32.94,5.92 L28.64,7.74 C27.9,7.22 27.12,6.76 26.3,6.38 L25.72,1.76 C25.6,0.76 24.74,0 23.74,0 L16.28,0 C15.26,0 14.4,0.76 14.28,1.76 L13.7,6.38 C12.88,6.76 12.1,7.22 11.36,7.74 L7.06,5.92 C6.14,5.52 5.06,5.88 4.56,6.76 L0.82,13.24 C0.32,14.12 0.54,15.22 1.34,15.84 L5.06,18.66 C5.02,19.1 5,19.54 5,20 C5,20.46 5.02,20.9 5.06,21.36 L1.34,24.18 C0.54,24.78 0.32,25.9 0.82,26.78 L4.56,33.24 C5.06,34.12 6.14,34.48 7.06,34.08 L11.36,32.26 C12.1,32.78 12.88,33.24 13.7,33.62 L14.28,38.24 C14.4,39.24 15.26,40 16.26,40 L23.72,40 C24.72,40 25.58,39.24 25.7,38.24 L26.28,33.62 C27.1,33.24 27.88,32.78 28.62,32.26 L32.92,34.08 C33.84,34.48 34.92,34.12 35.42,33.24 L39.16,26.78 C39.66,25.9 39.44,24.8 38.64,24.18 L34.92,21.36 C34.98,20.9 35,20.46 35,20 Z M20.08,27 C16.22,27 13.08,23.86 13.08,20 C13.08,16.14 16.22,13 20.08,13 C23.94,13 27.08,16.14 27.08,20 C27.08,23.86 23.94,27 20.08,27 Z" id="Shape"></path>
        </g>
        <g id="play_arrow_black_24dp" transform="translate(175.000000, 85.000000)" fill="#DDDDDD" fill-rule="nonzero">
            <path d="M0,3.7941834 L0,34.5780375 C0,36.925455 2.58513061,38.3517339 4.57597831,37.0740257 L28.7632923,21.6820986 C30.6055692,20.523247 30.6055692,17.8489739 28.7632923,16.6604081 L4.57597831,1.29819523 C2.58513061,0.0204869974 0,1.44676595 0,3.7941834 Z" id="Path"></path>
        </g>
        <path d="M850.996155,120.959022 L881.066587,120.959022 C884.141518,120.959022 886.058358,117.624518 884.520893,114.968896 L869.485677,88.9917168 C867.948211,86.3360944 864.114531,86.3360944 862.577065,88.9917168 L847.541849,114.968896 C846.004384,117.624518 847.921224,120.959022 850.996155,120.959022 Z M866.031371,106.982061 C864.933181,106.982061 864.034662,106.083543 864.034662,104.985353 L864.034662,100.991936 C864.034662,99.8937459 864.933181,98.995227 866.031371,98.995227 C867.129561,98.995227 868.02808,99.8937459 868.02808,100.991936 L868.02808,104.985353 C868.02808,106.083543 867.129561,106.982061 866.031371,106.982061 Z M868.02808,114.968896 L864.034662,114.968896 L864.034662,110.975479 L868.02808,110.975479 L868.02808,114.968896 Z" id="Shape" fill="#DDDDDD" fill-rule="nonzero"></path>
        <g id="build_black_24dp" transform="translate(621.000000, 85.000000)" fill="#DDDDDD" fill-rule="nonzero">
            <path d="M19.9879077,3.43097961 C16.3650246,-0.19190356 10.9397119,-0.93089963 6.5778327,1.19596711 L13.1206516,7.73878597 C13.823599,8.44173345 13.823599,9.577264 13.1206516,10.2802115 L10.2547888,13.1460743 C9.55184128,13.8670461 8.41631073,13.8670461 7.71336325,13.1460743 L1.17054438,6.60325543 C-0.93829806,10.983159 -0.19930199,16.372423 3.42358118,19.9953062 C6.77609994,23.3478249 11.678708,24.2310153 15.84232,22.6629017 L30.1896584,37.0102401 C32.0461607,38.8667424 35.0381935,38.8667424 36.8766716,37.0102401 C38.7331739,35.1537377 38.7331739,32.1617049 36.8766716,30.3232268 L22.6014304,16.0299614 C24.2596655,11.8122765 23.3944994,6.83757125 19.9879077,3.43097961 Z" id="Path"></path>
        </g>
        <g id="description_white_24dp" transform="translate(59.000000, 83.000000)" fill="#0079FF" fill-rule="nonzero">
            <path d="M21.841875,1.216875 C21.058125,0.433125 20.00625,0 18.913125,0 L4.125,0 C1.85625,0 0,1.85625 0,4.125 L0,37.125 C0,39.39375 1.835625,41.25 4.104375,41.25 L28.875,41.25 C31.14375,41.25 33,39.39375 33,37.125 L33,14.086875 C33,12.99375 32.566875,11.941875 31.783125,11.17875 L21.841875,1.216875 Z M22.6875,33 L10.3125,33 C9.178125,33 8.25,32.071875 8.25,30.9375 C8.25,29.803125 9.178125,28.875 10.3125,28.875 L22.6875,28.875 C23.821875,28.875 24.75,29.803125 24.75,30.9375 C24.75,32.071875 23.821875,33 22.6875,33 Z M22.6875,24.75 L10.3125,24.75 C9.178125,24.75 8.25,23.821875 8.25,22.6875 C8.25,21.553125 9.178125,20.625 10.3125,20.625 L22.6875,20.625 C23.821875,20.625 24.75,21.553125 24.75,22.6875 C24.75,23.821875 23.821875,24.75 22.6875,24.75 Z M18.5625,12.375 L18.5625,3.09375 L29.90625,14.4375 L20.625,14.4375 C19.490625,14.4375 18.5625,13.509375 18.5625,12.375 Z" id="Shape"></path>
        </g>
        <g id="people_black_24dp" transform="translate(733.000000, 91.000000)" fill="#DDDDDD" fill-rule="nonzero">
            <path d="M28.6363636,11.4545455 C31.8054545,11.4545455 34.3445455,8.89636364 34.3445455,5.72727273 C34.3445455,2.55818182 31.8054545,0 28.6363636,0 C25.4672727,0 22.9090909,2.55818182 22.9090909,5.72727273 C22.9090909,8.89636364 25.4672727,11.4545455 28.6363636,11.4545455 Z M13.3636364,11.4545455 C16.5327273,11.4545455 19.0718182,8.89636364 19.0718182,5.72727273 C19.0718182,2.55818182 16.5327273,0 13.3636364,0 C10.1945455,0 7.63636364,2.55818182 7.63636364,5.72727273 C7.63636364,8.89636364 10.1945455,11.4545455 13.3636364,11.4545455 Z M13.3636364,15.2727273 C8.91545455,15.2727273 0,17.5063636 0,21.9545455 L0,24.8181818 C0,25.8681818 0.859090909,26.7272727 1.90909091,26.7272727 L24.8181818,26.7272727 C25.8681818,26.7272727 26.7272727,25.8681818 26.7272727,24.8181818 L26.7272727,21.9545455 C26.7272727,17.5063636 17.8118182,15.2727273 13.3636364,15.2727273 Z M28.6363636,15.2727273 C28.0827273,15.2727273 27.4527273,15.3109091 26.7845455,15.3681818 C26.8227273,15.3872727 26.8418182,15.4254545 26.8609091,15.4445455 C29.0372727,17.0290909 30.5454545,19.1481818 30.5454545,21.9545455 L30.5454545,24.8181818 C30.5454545,25.4863636 30.4118182,26.1354545 30.2018182,26.7272727 L40.0909091,26.7272727 C41.1409091,26.7272727 42,25.8681818 42,24.8181818 L42,21.9545455 C42,17.5063636 33.0845455,15.2727273 28.6363636,15.2727273 Z" id="Shape"></path>
        </g>
        <path d="M479,1159 C479,1161.2 480.8,1163 483,1163 L499,1163 C501.2,1163 503,1161.2 503,1159 L503,1139 C503,1136.8 501.2,1135 499,1135 L483,1135 C480.8,1135 479,1136.8 479,1139 L479,1159 Z M503,1129 L498,1129 L496.58,1127.58 C496.22,1127.22 495.7,1127 495.18,1127 L486.82,1127 C486.3,1127 485.78,1127.22 485.42,1127.58 L484,1129 L479,1129 C477.9,1129 477,1129.9 477,1131 C477,1132.1 477.9,1133 479,1133 L503,1133 C504.1,1133 505,1132.1 505,1131 C505,1129.9 504.1,1129 503,1129 Z" id="Shape" fill="#D2D2D2" fill-rule="nonzero"></path>
        <g id="file_upload_black_24dp" transform="translate(836.000000, 1126.000000)" fill="#D2D2D2" fill-rule="nonzero">
            <path d="M5.31428571,14.9692227 L8.835,14.9692227 L8.835,26.0406513 C8.835,27.2585084 9.83142857,28.254937 11.0492857,28.254937 L19.9064286,28.254937 C21.1242857,28.254937 22.1207143,27.2585084 22.1207143,26.0406513 L22.1207143,14.9692227 L25.6414286,14.9692227 C27.6121429,14.9692227 28.6085714,12.5777941 27.2135714,11.1827941 L17.05,1.01922269 C16.1864286,0.155651261 14.7914286,0.155651261 13.9278571,1.01922269 L3.76428571,11.1827941 C2.36928571,12.5777941 3.34357143,14.9692227 5.31428571,14.9692227 Z M0,34.8977941 C0,36.1156513 0.996428571,37.1120798 2.21428571,37.1120798 L28.7857143,37.1120798 C30.0035714,37.1120798 31,36.1156513 31,34.8977941 C31,33.679937 30.0035714,32.6835084 28.7857143,32.6835084 L2.21428571,32.6835084 C0.996428571,32.6835084 0,33.679937 0,34.8977941 Z" id="Shape"></path>
        </g>
        <path d="M713,1155.92299 L713,1162.00257 C713,1162.56253 713.439969,1163.0025 713.999931,1163.0025 L720.079508,1163.0025 C720.33949,1163.0025 720.599472,1162.90251 720.77946,1162.70252 L742.617943,1140.88404 L735.118464,1133.38456 L713.299979,1155.20304 C713.099993,1155.40303 713,1155.64301 713,1155.92299 Z M748.417541,1135.08444 C749.197486,1134.30449 749.197486,1133.04458 748.417541,1132.26463 L743.737866,1127.58496 C742.95792,1126.80501 741.698007,1126.80501 740.918061,1127.58496 L737.258316,1131.24471 L744.757795,1138.74418 L748.417541,1135.08444 Z" id="Shape" fill="#D2D2D2" fill-rule="nonzero"></path>
        <g id="content_copy_black_24dp" opacity="0.3" transform="translate(596.000000, 1126.000000)" fill="#D2D2D2" fill-rule="nonzero">
            <path d="M21.8823529,34.6991597 L3.64705882,34.6991597 L3.64705882,9.63865546 C3.64705882,8.57840336 2.82647059,7.71092437 1.82352941,7.71092437 L1.82352941,7.71092437 C0.820588235,7.71092437 0,8.57840336 0,9.63865546 L0,34.6991597 C0,36.8196639 1.64117647,38.5546218 3.64705882,38.5546218 L21.8823529,38.5546218 C22.8852941,38.5546218 23.7058824,37.6871429 23.7058824,36.6268908 L23.7058824,36.6268908 C23.7058824,35.5666387 22.8852941,34.6991597 21.8823529,34.6991597 Z M31,26.9882353 L31,3.85546218 C31,1.73495798 29.3588235,0 27.3529412,0 L10.9411765,0 C8.93529412,0 7.29411765,1.73495798 7.29411765,3.85546218 L7.29411765,26.9882353 C7.29411765,29.1087395 8.93529412,30.8436975 10.9411765,30.8436975 L27.3529412,30.8436975 C29.3588235,30.8436975 31,29.1087395 31,26.9882353 Z M27.3529412,26.9882353 L10.9411765,26.9882353 L10.9411765,3.85546218 L27.3529412,3.85546218 L27.3529412,26.9882353 Z" id="Shape"></path>
        </g>
        <g id="Group-Copy-7" transform="translate(395.000000, 86.000000)">
            <mask id="mask-2" fill="white">
                <use xlink:href="#path-1"></use>
            </mask>
            <g id="Mask"></g>
            <g id="Group" mask="url(#mask-2)" fill="#DDDDDD" stroke="#181818">
                <g transform="translate(-6.315789, -6.315789)">
                    <rect id="Rectangle-1467-Copy-48" x="7.86842105" y="8.92105263" width="6.36842105" height="4.26315789"></rect>
                    <rect id="Rectangle-1474-Copy-28" x="14.1842105" y="0.5" width="4.26315789" height="21.1052632"></rect>
                    <rect id="Rectangle-1467-Copy-47" x="26.8157895" y="8.92105263" width="16.8947368" height="4.26315789"></rect>
                    <rect id="Rectangle-1474-Copy-27" x="33.1315789" y="0.5" width="4.26315789" height="21.1052632"></rect>
                    <rect id="Rectangle-1467-Copy-46" x="25.7631579" y="17.3421053" width="17.9473684" height="4.26315789"></rect>
                    <rect id="Rectangle-1474-Copy-26" x="23.6578947" y="0.5" width="4.26315789" height="31.6315789"></rect>
                    <rect id="Rectangle-1474-Copy-25" x="23.6578947" y="31.0263158" width="4.26315789" height="31.6315789"></rect>
                    <rect id="Rectangle-1467-Copy-45" x="18.3947368" y="8.92105263" width="14.7894737" height="4.26315789"></rect>
                    <rect id="Rectangle-1467-Copy-44" x="7.86842105" y="17.3421053" width="15.8421053" height="4.26315789"></rect>
                    <rect id="Rectangle-1467-Copy-43" x="7.86842105" y="26.8157895" width="20.0526316" height="4.26315789"></rect>
                    <rect id="Rectangle-1474-Copy-24" x="14.1842105" y="21.5526316" width="4.26315789" height="21.1052632"></rect>
                    <rect id="Rectangle-1467-Copy-42" x="26.8157895" y="26.8157895" width="16.8947368" height="4.26315789"></rect>
                    <rect id="Rectangle-1474-Copy-23" x="33.1315789" y="21.5526316" width="4.26315789" height="21.1052632"></rect>
                    <rect id="Rectangle-1467-Copy-41" x="27.8684211" y="35.2368421" width="15.8421053" height="4.26315789"></rect>
                    <rect id="Rectangle-1467-Copy-40" x="18.3947368" y="26.8157895" width="14.7894737" height="4.26315789"></rect>
                    <rect id="Rectangle-1467-Copy-39" x="7.86842105" y="35.2368421" width="15.8421053" height="4.26315789"></rect>
                    <rect id="Rectangle-1467-Copy-38" x="0.5" y="43.6578947" width="24.2631579" height="4.26315789"></rect>
                    <rect id="Rectangle-1474-Copy-22" x="14.1842105" y="39.4473684" width="4.26315789" height="21.1052632"></rect>
                    <rect id="Rectangle-1467-Copy-37" x="28.9210526" y="44.7105263" width="24.2631579" height="4.26315789"></rect>
                    <rect id="Rectangle-1474-Copy-21" x="33.1315789" y="39.4473684" width="4.26315789" height="21.1052632"></rect>
                    <rect id="Rectangle-1467-Copy-36" x="14.1842105" y="43.6578947" width="24.2631579" height="4.26315789"></rect>
                </g>
            </g>
        </g>
        <rect id="Rectangle-1080-Copy-22" fill="#FFAFD2" x="340" y="393" width="154" height="87"></rect>
        <line x1="327.743943" y1="366" x2="327.256057" y2="506.999156" id="Line-3-Copy-3" stroke="#979797" stroke-linecap="square"></line>
        <text id="25/25" font-family="HelveticaNeue-Bold, Helvetica Neue" font-size="17" font-weight="bold" fill="#FFFFFF">
            <tspan x="448" y="387">25/25</tspan>
        </text>
        <text id="20/20" font-family="HelveticaNeue-Bold, Helvetica Neue" font-size="17" font-weight="bold" fill="#FFFFFF">
            <tspan x="448" y="545">20/20</tspan>
        </text>
        <text id="15/15" font-family="HelveticaNeue-Bold, Helvetica Neue" font-size="17" font-weight="bold" fill="#FFFFFF">
            <tspan x="606" y="567">15/15</tspan>
        </text>
        <rect id="Rectangle-1080-Copy-23" fill="#FFAFD2" x="498" y="393" width="154" height="87"></rect>
        <text id="25/25-copy" font-family="HelveticaNeue-Bold, Helvetica Neue" font-size="17" font-weight="bold" fill="#FFFFFF">
            <tspan x="606" y="387">25/25</tspan>
        </text>
        <rect id="Rectangle-1080-Copy-29" fill="#83B5AE" x="340" y="553" width="154" height="74"></rect>
        <rect id="Rectangle-1080-Copy-30" fill="#83B5AE" x="498" y="573" width="154" height="54"></rect>
        <text id="28TSHIRT01...-L-100" font-family="HelveticaNeue, Helvetica Neue" font-size="15" font-weight="normal" letter-spacing="0.3" fill="#FFFFFF">
            <tspan x="366.285" y="326">28TSHIRT01...</tspan>
            <tspan x="397.485" y="343">L 100</tspan>
        </text>
        <text id="28TSHIRT01...-L-100-Copy" font-family="HelveticaNeue, Helvetica Neue" font-size="15" font-weight="normal" letter-spacing="0.3" fill="#FFFFFF">
            <tspan x="524.285" y="326">28TSHIRT01...</tspan>
            <tspan x="555.485" y="343">L 100</tspan>
        </text>
        <text id="50-m" font-family="HelveticaNeue, Helvetica Neue" font-size="15" font-weight="normal" fill="#FFFFFF">
            <tspan x="284.1775" y="442">50 m</tspan>
        </text>
        <line x1="327.743943" y1="525" x2="327.325261" y2="645.999276" id="Line-3-Copy-4" stroke="#979797" stroke-linecap="square"></line>
        <text id="35-m" font-family="HelveticaNeue, Helvetica Neue" font-size="15" font-weight="normal" fill="#FFFFFF">
            <tspan x="284.1775" y="601">35 m</tspan>
        </text>
        <text id="0" font-family="HelveticaNeue, Helvetica Neue" font-size="17" font-weight="normal" fill="#FFFFFF">
            <tspan x="336" y="337">0</tspan>
        </text>
        <text id="100" font-family="HelveticaNeue, Helvetica Neue" font-size="17" font-weight="normal" fill="#FFFFFF">
            <tspan x="481" y="337">100</tspan>
        </text>
        <text id="200" font-family="HelveticaNeue, Helvetica Neue" font-size="17" font-weight="normal" fill="#FFFFFF">
            <tspan x="637" y="337">200</tspan>
        </text>
        <line x1="496.5" y1="345.5" x2="496.5" y2="357.5" id="Line-5-Copy-16" stroke="#979797" stroke-linecap="square"></line>
        <line x1="652.5" y1="345.5" x2="652.5" y2="357.5" id="Line-5-Copy-15" stroke="#979797" stroke-linecap="square"></line>
        <text id="cm" font-family="HelveticaNeue-Medium, Helvetica Neue" font-size="16" font-weight="400" fill="#A0A0A0">
            <tspan x="307" y="337">cm</tspan>
        </text>
        <text id="fabric-need" font-family="HelveticaNeue-Medium, Helvetica Neue" font-size="16" font-weight="400" fill="#A0A0A0">
            <tspan x="275.904" y="374">fabric</tspan>
            <tspan x="281.248" y="393">need</tspan>
        </text>
        <line x1="351.5" y1="356.5" x2="483.5" y2="356.5" id="Line-6-Copy" stroke="#979797" stroke-linecap="square"></line>
        <line x1="509.5" y1="356.5" x2="641.5" y2="356.5" id="Line-6-Copy-2" stroke="#979797" stroke-linecap="square"></line>
        <rect id="Rectangle-1080-Copy-6" fill="#222222" x="28" y="478" width="224" height="38"></rect>
        <rect id="Rectangle-1080-Copy-9" fill="#222222" x="240" y="530" width="12" height="654"></rect>
        <text id="RESULTS" font-family="HelveticaNeue-Medium, Helvetica Neue" font-size="20" font-weight="400" letter-spacing="0.5" fill="#A0A0A0">
            <tspan x="36" y="506">RESULTS</tspan>
        </text>
        <rect id="Rectangle-622-Copy-37" fill="#0079FF" x="30" y="530" width="8" height="48"></rect>
        <text id="1128002" font-family="HelveticaNeue, Helvetica Neue" font-size="18" font-weight="normal" letter-spacing="0.5" fill="#FFFFFF">
            <tspan x="47" y="561">1128002</tspan>
        </text>
        <text id="80082306001-(1)" font-family="HelveticaNeue, Helvetica Neue" font-size="18" font-weight="normal" letter-spacing="0.5" fill="#A0A0A0">
            <tspan x="47" y="607">80082306001 (1)</tspan>
        </text>
        <text id="80082306001" font-family="HelveticaNeue, Helvetica Neue" font-size="18" font-weight="normal" letter-spacing="0.5" fill="#A0A0A0">
            <tspan x="47" y="653">80082306001</tspan>
        </text>
        <text id="80082306001-copy" font-family="HelveticaNeue, Helvetica Neue" font-size="18" font-weight="normal" letter-spacing="0.5" fill="#A0A0A0">
            <tspan x="47" y="699">80082306001</tspan>
        </text>
        <text id="80082306001-copy-2" font-family="HelveticaNeue, Helvetica Neue" font-size="18" font-weight="normal" letter-spacing="0.5" fill="#A0A0A0">
            <tspan x="47" y="745">80082306001</tspan>
        </text>
        <text id="testEndroll30001---•" font-family="HelveticaNeue, Helvetica Neue" font-size="18" font-weight="normal" letter-spacing="0.5" fill="#A0A0A0">
            <tspan x="47" y="790">testEndroll30001 - •••</tspan>
        </text>
        <text id="80082306001-copy-4" font-family="HelveticaNeue, Helvetica Neue" font-size="18" font-weight="normal" letter-spacing="0.5" fill="#A0A0A0">
            <tspan x="47" y="836">80082306001</tspan>
        </text>
        <text id="80082306001-copy-5" font-family="HelveticaNeue, Helvetica Neue" font-size="18" font-weight="normal" letter-spacing="0.5" fill="#A0A0A0">
            <tspan x="47" y="882">80082306001</tspan>
        </text>
        <text id="80082306001-copy-6" font-family="HelveticaNeue, Helvetica Neue" font-size="18" font-weight="normal" letter-spacing="0.5" fill="#A0A0A0">
            <tspan x="47" y="928">80082306001</tspan>
        </text>
        <text id="80082306001-copy-7" font-family="HelveticaNeue, Helvetica Neue" font-size="18" font-weight="normal" letter-spacing="0.5" fill="#A0A0A0">
            <tspan x="47" y="973">80082306001</tspan>
        </text>
        <text id="80082306001-copy-8" font-family="HelveticaNeue, Helvetica Neue" font-size="18" font-weight="normal" letter-spacing="0.5" fill="#A0A0A0">
            <tspan x="47" y="1019">80082306001</tspan>
        </text>
        <text id="80082306001-copy-9" font-family="HelveticaNeue, Helvetica Neue" font-size="18" font-weight="normal" letter-spacing="0.5" fill="#A0A0A0">
            <tspan x="47" y="1065">80082306001</tspan>
        </text>
        <text id="80082306001-copy-10" font-family="HelveticaNeue, Helvetica Neue" font-size="18" font-weight="normal" letter-spacing="0.5" fill="#A0A0A0">
            <tspan x="47" y="1111">80082306001</tspan>
        </text>
        <text id="80082306001-copy-11" font-family="HelveticaNeue, Helvetica Neue" font-size="18" font-weight="normal" letter-spacing="0.5" fill="#A0A0A0">
            <tspan x="47" y="1157">80082306001</tspan>
        </text>
        <rect id="Rectangle-1080-Copy-35" fill="#444444" x="240" y="596" width="12" height="87"></rect>
    </g>
</svg>