<?xml version="1.0" encoding="UTF-8"?>
<svg width="940px" height="1236px" viewBox="0 0 940 1236" version="1.1" xmlns="http://www.w3.org/2000/svg" xmlns:xlink="http://www.w3.org/1999/xlink">
    <title>v3.1.1</title>
    <defs>
        <rect id="path-1" x="0" y="0" width="40" height="35.7894737"></rect>
    </defs>
    <g id="v3.1.1" stroke="none" stroke-width="1" fill="none" fill-rule="evenodd">
        <rect fill="#181818" x="0" y="0" width="940" height="1236"></rect>
        <rect id="Rectangle" fill="#111111" x="30" y="136" width="892" height="34"></rect>
        <rect id="bg" stroke="#7E7E7E" x="18.5" y="224.5" width="908" height="996" rx="5"></rect>
        <path d="M919.00318,45 C920.107715,45 921.107796,45.4461724 921.831287,46.1698212 C922.55374,46.8924309 923,47.8914907 923,48.9979064 L923,48.9979064 L923,117.002094 C923,118.105208 922.551297,119.103776 921.828194,119.827036 C921.10401,120.551378 920.104365,121 919.00318,121 L919.00318,121 L810,121 L810,45 Z" id="bg-copy-8" stroke="#7E7E7E" stroke-width="2"></path>
        <rect id="bg-copy-7" stroke="#7E7E7E" stroke-width="2" x="697" y="45" width="113" height="76"></rect>
        <rect id="bg-copy-6" stroke="#7E7E7E" stroke-width="2" x="584" y="45" width="113" height="76"></rect>
        <rect id="bg-copy-5" stroke="#7E7E7E" stroke-width="2" x="471" y="45" width="113" height="76"></rect>
        <rect id="bg-copy-4" stroke="#7E7E7E" stroke-width="2" x="358" y="45" width="113" height="76"></rect>
        <rect id="bg-copy-3" stroke="#7E7E7E" stroke-width="2" x="245" y="45" width="113" height="76"></rect>
        <rect id="bg-copy-2" stroke="#7E7E7E" stroke-width="2" x="132" y="45" width="113" height="76"></rect>
        <path d="M132,45 L132,121 L22.9968199,121 C21.8922851,121 20.8922043,120.553828 20.1687128,119.830179 C19.4462602,119.107569 19,118.108509 19,117.002094 L19,117.002094 L19,48.9979064 C19,47.8947917 19.448703,46.896224 20.1718057,46.1729641 C20.8959904,45.4486219 21.895635,45 22.9968199,45 L22.9968199,45 L132,45 Z" id="bg-copy" stroke="#7E7E7E" stroke-width="2"></path>
        <text id="WARRANTY-ORDINARY" font-family="HelveticaNeue-Italic, Helvetica Neue" font-size="17" font-style="italic" font-weight="normal" letter-spacing="0.5" fill="#B0B0B0">
            <tspan x="40" y="159">WARRANTY ORDINARY</tspan>
        </text>
        <g id="Group-4" transform="translate(301.500000, 83.060976) rotate(-17.000000) translate(-301.500000, -83.060976) translate(286.000000, 60.000000)">
            <g id="Group-3">
                <circle id="Oval-Copy-2" fill="#DDDDDD" cx="7.93902439" cy="7.93902439" r="7.93902439"></circle>
                <circle id="Oval-Copy-3" fill="#181818" cx="7.93902439" cy="7.93902439" r="2.64634146"></circle>
            </g>
            <g id="Group-3-Copy" transform="translate(7.560976, 15.121951)">
                <circle id="Oval-Copy-2" fill="#DDDDDD" cx="7.93902439" cy="7.93902439" r="7.93902439"></circle>
                <circle id="Oval-Copy-3" fill="#181818" cx="7.93902439" cy="7.93902439" r="2.64634146"></circle>
            </g>
            <g id="Group-3-Copy-2" transform="translate(15.121951, 30.243902)">
                <circle id="Oval-Copy-2" fill="#DDDDDD" cx="7.93902439" cy="7.93902439" r="7.93902439"></circle>
                <circle id="Oval-Copy-3" fill="#181818" cx="7.93902439" cy="7.93902439" r="2.64634146"></circle>
            </g>
        </g>
        <rect id="bg-copy-8" stroke="#D2D2D2" stroke-width="2" x="795" y="1132" width="112" height="76" rx="4"></rect>
        <rect id="bg-copy-8" stroke="#D2D2D2" stroke-width="2" x="675" y="1132" width="112" height="76" rx="4"></rect>
        <rect id="bg-copy-8" stroke="#D2D2D2" stroke-width="2" x="555" y="1132" width="112" height="76" rx="4"></rect>
        <rect id="bg-copy-8" stroke="#D2D2D2" stroke-width="2" x="435" y="1132" width="112" height="76" rx="4"></rect>
        <g id="Group-9" transform="translate(810.000000, 401.000000)">
            <g id="Group-8" transform="translate(0.000000, 68.000000)">
                <rect id="bg-copy-10" stroke="#D2D2D2" stroke-width="2" x="1" y="1" width="82" height="56" rx="4"></rect>
                <path d="M32.6428571,40.2857143 C32.6428571,42.0928571 34.1214286,43.5714286 35.9285714,43.5714286 L49.0714286,43.5714286 C50.8785714,43.5714286 52.3571429,42.0928571 52.3571429,40.2857143 L52.3571429,23.8571429 C52.3571429,22.05 50.8785714,20.5714286 49.0714286,20.5714286 L35.9285714,20.5714286 C34.1214286,20.5714286 32.6428571,22.05 32.6428571,23.8571429 L32.6428571,40.2857143 Z M52.3571429,15.6428571 L48.25,15.6428571 L47.0835714,14.4764286 C46.7878571,14.1807143 46.3607143,14 45.9335714,14 L39.0664286,14 C38.6392857,14 38.2121429,14.1807143 37.9164286,14.4764286 L36.75,15.6428571 L32.6428571,15.6428571 C31.7392857,15.6428571 31,16.3821429 31,17.2857143 C31,18.1892857 31.7392857,18.9285714 32.6428571,18.9285714 L52.3571429,18.9285714 C53.2607143,18.9285714 54,18.1892857 54,17.2857143 C54,16.3821429 53.2607143,15.6428571 52.3571429,15.6428571 Z" id="Shape" fill="#D2D2D2" fill-rule="nonzero"></path>
            </g>
            <g id="Group-2">
                <rect id="bg-copy-9" stroke="#D2D2D2" stroke-width="2" x="1" y="1" width="82" height="56" rx="4"></rect>
                <path d="M54,31 L44,31 L44,41 C44,42.1 43.1,43 42,43 C40.9,43 40,42.1 40,41 L40,31 L30,31 C28.9,31 28,30.1 28,29 C28,27.9 28.9,27 30,27 L40,27 L40,17 C40,15.9 40.9,15 42,15 C43.1,15 44,15.9 44,17 L44,27 L54,27 C55.1,27 56,27.9 56,29 C56,30.1 55.1,31 54,31 Z" id="Path" fill="#D2D2D2" fill-rule="nonzero"></path>
            </g>
        </g>
        <rect id="Rectangle-1080-Copy-4" fill="#222222" x="28" y="237" width="884" height="38"></rect>
        <rect id="Rectangle-1080-Copy-8" fill="#222222" x="-10" y="0" width="957" height="38"></rect>
        <text id="DATA" font-family="HelveticaNeue-Medium, Helvetica Neue" font-size="20" font-weight="400" letter-spacing="0.5" fill="#B0B0B0">
            <tspan x="35" y="264">DATA</tspan>
        </text>
        <rect id="Rectangle-1080-Copy-7" fill="#222222" x="28" y="595" width="884" height="38"></rect>
        <text id="COLOR" font-family="HelveticaNeue-Medium, Helvetica Neue" font-size="20" font-weight="400" letter-spacing="0.5" fill="#B0B0B0">
            <tspan x="35" y="622">COLOR</tspan>
        </text>
        <rect id="Rectangle-1080-Copy-9" fill="#222222" x="28" y="844" width="884" height="38"></rect>
        <text id="MARKER" font-family="HelveticaNeue-Medium, Helvetica Neue" font-size="20" font-weight="400" letter-spacing="0.5" fill="#B0B0B0">
            <tspan x="35" y="871">MARKER</tspan>
        </text>
        <rect id="Rectangle-622-Copy-36" fill="#0079FF" x="319" y="218" width="80" height="5.88999987"></rect>
        <text id="LIST" font-family="HelveticaNeue-Medium, Helvetica Neue" font-size="24" font-weight="400" letter-spacing="0.6" fill="#FFFFFF">
            <tspan x="60" y="211">LIST</tspan>
        </text>
        <text id="EDIT" font-family="HelveticaNeue-Medium, Helvetica Neue" font-size="24" font-weight="400" letter-spacing="0.6" fill="#B0B0B0">
            <tspan x="331" y="211">EDIT</tspan>
        </text>
        <text id="MDC" font-family="HelveticaNeue-Medium, Helvetica Neue" font-size="24" font-weight="400" letter-spacing="0.6" fill="#B0B0B0">
            <tspan x="192" y="211">MDC</tspan>
        </text>
        <text id="Name" font-family="HelveticaNeue, Helvetica Neue" font-size="18" font-weight="normal" letter-spacing="0.5" fill="#B0B0B0">
            <tspan x="35" y="308">Name</tspan>
        </text>
        <rect id="Rectangle-1022-Copy-7" stroke="#FFFFFF" stroke-width="2" x="36" y="320" width="178" height="32" rx="3"></rect>
        <text id="Sales-order" font-family="HelveticaNeue, Helvetica Neue" font-size="18" font-weight="normal" letter-spacing="0.5" fill="#B0B0B0">
            <tspan x="228" y="308">Sales order</tspan>
        </text>
        <rect id="Rectangle-1022-Copy-8" stroke="#FFFFFF" stroke-width="2" x="229" y="320" width="178" height="32" rx="3"></rect>
        <text id="Key-KOP" font-family="HelveticaNeue, Helvetica Neue" font-size="18" font-weight="normal" letter-spacing="0.5" fill="#B0B0B0">
            <tspan x="421" y="308">Key KOP</tspan>
        </text>
        <rect id="Rectangle-1022-Copy-8" stroke="#A0A0A0" stroke-width="2" x="422" y="320" width="178" height="32" rx="3"></rect>
        <text id="Date" font-family="HelveticaNeue, Helvetica Neue" font-size="18" font-weight="normal" letter-spacing="0.5" fill="#B0B0B0">
            <tspan x="614" y="308">Date</tspan>
        </text>
        <text id="Completed" font-family="HelveticaNeue, Helvetica Neue" font-size="18" font-weight="normal" letter-spacing="0.5" fill="#B0B0B0">
            <tspan x="805" y="308">Completed</tspan>
        </text>
        <rect id="Rectangle-1022-Copy-9" stroke="#FFFFFF" stroke-width="2" x="615" y="320" width="178" height="32" rx="3"></rect>
        <text id="04/03/2022" font-family="HelveticaNeue, Helvetica Neue" font-size="16" font-weight="normal" letter-spacing="0.444444444" fill="#FFFFFF">
            <tspan x="623" y="342">04/03/2022</tspan>
        </text>
        <text id="New-name" font-family="HelveticaNeue, Helvetica Neue" font-size="16" font-weight="normal" letter-spacing="0.444444444" fill="#FFFFFF">
            <tspan x="48" y="342">New name</tspan>
        </text>
        <text id="New-sales-order" font-family="HelveticaNeue, Helvetica Neue" font-size="16" font-weight="normal" letter-spacing="0.444444444" fill="#FFFFFF">
            <tspan x="240" y="342">New sales order</tspan>
        </text>
        <g id="Group-5" transform="translate(837.000000, 320.000000)">
            <rect id="Rectangle-1022-Copy-12" stroke="#0079FF" stroke-width="2" fill="#0079FF" x="1" y="1" width="28" height="28" rx="4"></rect>
            <polyline id="Path-180-Copy" stroke="#FFFFFF" stroke-width="4" stroke-linecap="round" stroke-linejoin="round" points="8 12.1458321 13.9221288 21.3950005 23 8"></polyline>
        </g>
        <text id="No-element-selected" font-family="HelveticaNeue-MediumItalic, Helvetica Neue" font-size="28" font-style="italic" font-weight="500" letter-spacing="0.777777778" fill="#808080">
            <tspan x="330" y="962">No element selected</tspan>
        </text>
        <text id="Morgan---Spreader-So" font-family="HelveticaNeue, Helvetica Neue" font-size="17" font-weight="normal" fill="#A0A0A0">
            <tspan x="15" y="24">Morgan - Spreader Software</tspan>
        </text>
        <g id="settings_black_24dp" transform="translate(508.000000, 63.000000)" fill="#DDDDDD" fill-rule="nonzero">
            <path d="M35,20 C35,19.54 34.98,19.1 34.94,18.64 L38.66,15.82 C39.46,15.22 39.68,14.1 39.18,13.22 L35.44,6.76 C34.94,5.88 33.86,5.52 32.94,5.92 L28.64,7.74 C27.9,7.22 27.12,6.76 26.3,6.38 L25.72,1.76 C25.6,0.76 24.74,0 23.74,0 L16.28,0 C15.26,0 14.4,0.76 14.28,1.76 L13.7,6.38 C12.88,6.76 12.1,7.22 11.36,7.74 L7.06,5.92 C6.14,5.52 5.06,5.88 4.56,6.76 L0.82,13.24 C0.32,14.12 0.54,15.22 1.34,15.84 L5.06,18.66 C5.02,19.1 5,19.54 5,20 C5,20.46 5.02,20.9 5.06,21.36 L1.34,24.18 C0.54,24.78 0.32,25.9 0.82,26.78 L4.56,33.24 C5.06,34.12 6.14,34.48 7.06,34.08 L11.36,32.26 C12.1,32.78 12.88,33.24 13.7,33.62 L14.28,38.24 C14.4,39.24 15.26,40 16.26,40 L23.72,40 C24.72,40 25.58,39.24 25.7,38.24 L26.28,33.62 C27.1,33.24 27.88,32.78 28.62,32.26 L32.92,34.08 C33.84,34.48 34.92,34.12 35.42,33.24 L39.16,26.78 C39.66,25.9 39.44,24.8 38.64,24.18 L34.92,21.36 C34.98,20.9 35,20.46 35,20 Z M20.08,27 C16.22,27 13.08,23.86 13.08,20 C13.08,16.14 16.22,13 20.08,13 C23.94,13 27.08,16.14 27.08,20 C27.08,23.86 23.94,27 20.08,27 Z" id="Shape"></path>
        </g>
        <g id="play_arrow_black_24dp" transform="translate(175.000000, 64.000000)" fill="#DDDDDD" fill-rule="nonzero">
            <path d="M0,3.7941834 L0,34.5780375 C0,36.925455 2.58513061,38.3517339 4.57597831,37.0740257 L28.7632923,21.6820986 C30.6055692,20.523247 30.6055692,17.8489739 28.7632923,16.6604081 L4.57597831,1.29819523 C2.58513061,0.0204869974 0,1.44676595 0,3.7941834 Z" id="Path"></path>
        </g>
        <path d="M850.996155,99.9590218 L881.066587,99.9590218 C884.141518,99.9590218 886.058358,96.6245184 884.520893,93.9688959 L869.485677,67.9917168 C867.948211,65.3360944 864.114531,65.3360944 862.577065,67.9917168 L847.541849,93.9688959 C846.004384,96.6245184 847.921224,99.9590218 850.996155,99.9590218 Z M866.031371,85.9820615 C864.933181,85.9820615 864.034662,85.0835426 864.034662,83.9853529 L864.034662,79.9919356 C864.034662,78.8937459 864.933181,77.995227 866.031371,77.995227 C867.129561,77.995227 868.02808,78.8937459 868.02808,79.9919356 L868.02808,83.9853529 C868.02808,85.0835426 867.129561,85.9820615 866.031371,85.9820615 Z M868.02808,93.9688959 L864.034662,93.9688959 L864.034662,89.9754787 L868.02808,89.9754787 L868.02808,93.9688959 Z" id="Shape" fill="#DDDDDD" fill-rule="nonzero"></path>
        <g id="build_black_24dp" transform="translate(621.000000, 64.000000)" fill="#DDDDDD" fill-rule="nonzero">
            <path d="M19.9879077,3.43097961 C16.3650246,-0.19190356 10.9397119,-0.93089963 6.5778327,1.19596711 L13.1206516,7.73878597 C13.823599,8.44173345 13.823599,9.577264 13.1206516,10.2802115 L10.2547888,13.1460743 C9.55184128,13.8670461 8.41631073,13.8670461 7.71336325,13.1460743 L1.17054438,6.60325543 C-0.93829806,10.983159 -0.19930199,16.372423 3.42358118,19.9953062 C6.77609994,23.3478249 11.678708,24.2310153 15.84232,22.6629017 L30.1896584,37.0102401 C32.0461607,38.8667424 35.0381935,38.8667424 36.8766716,37.0102401 C38.7331739,35.1537377 38.7331739,32.1617049 36.8766716,30.3232268 L22.6014304,16.0299614 C24.2596655,11.8122765 23.3944994,6.83757125 19.9879077,3.43097961 Z" id="Path"></path>
        </g>
        <g id="description_white_24dp" transform="translate(59.000000, 62.000000)" fill="#0079FF" fill-rule="nonzero">
            <path d="M21.841875,1.216875 C21.058125,0.433125 20.00625,0 18.913125,0 L4.125,0 C1.85625,0 0,1.85625 0,4.125 L0,37.125 C0,39.39375 1.835625,41.25 4.104375,41.25 L28.875,41.25 C31.14375,41.25 33,39.39375 33,37.125 L33,14.086875 C33,12.99375 32.566875,11.941875 31.783125,11.17875 L21.841875,1.216875 Z M22.6875,33 L10.3125,33 C9.178125,33 8.25,32.071875 8.25,30.9375 C8.25,29.803125 9.178125,28.875 10.3125,28.875 L22.6875,28.875 C23.821875,28.875 24.75,29.803125 24.75,30.9375 C24.75,32.071875 23.821875,33 22.6875,33 Z M22.6875,24.75 L10.3125,24.75 C9.178125,24.75 8.25,23.821875 8.25,22.6875 C8.25,21.553125 9.178125,20.625 10.3125,20.625 L22.6875,20.625 C23.821875,20.625 24.75,21.553125 24.75,22.6875 C24.75,23.821875 23.821875,24.75 22.6875,24.75 Z M18.5625,12.375 L18.5625,3.09375 L29.90625,14.4375 L20.625,14.4375 C19.490625,14.4375 18.5625,13.509375 18.5625,12.375 Z" id="Shape"></path>
        </g>
        <g id="people_black_24dp" transform="translate(733.000000, 70.000000)" fill="#DDDDDD" fill-rule="nonzero">
            <path d="M28.6363636,11.4545455 C31.8054545,11.4545455 34.3445455,8.89636364 34.3445455,5.72727273 C34.3445455,2.55818182 31.8054545,0 28.6363636,0 C25.4672727,0 22.9090909,2.55818182 22.9090909,5.72727273 C22.9090909,8.89636364 25.4672727,11.4545455 28.6363636,11.4545455 Z M13.3636364,11.4545455 C16.5327273,11.4545455 19.0718182,8.89636364 19.0718182,5.72727273 C19.0718182,2.55818182 16.5327273,0 13.3636364,0 C10.1945455,0 7.63636364,2.55818182 7.63636364,5.72727273 C7.63636364,8.89636364 10.1945455,11.4545455 13.3636364,11.4545455 Z M13.3636364,15.2727273 C8.91545455,15.2727273 0,17.5063636 0,21.9545455 L0,24.8181818 C0,25.8681818 0.859090909,26.7272727 1.90909091,26.7272727 L24.8181818,26.7272727 C25.8681818,26.7272727 26.7272727,25.8681818 26.7272727,24.8181818 L26.7272727,21.9545455 C26.7272727,17.5063636 17.8118182,15.2727273 13.3636364,15.2727273 Z M28.6363636,15.2727273 C28.0827273,15.2727273 27.4527273,15.3109091 26.7845455,15.3681818 C26.8227273,15.3872727 26.8418182,15.4254545 26.8609091,15.4445455 C29.0372727,17.0290909 30.5454545,19.1481818 30.5454545,21.9545455 L30.5454545,24.8181818 C30.5454545,25.4863636 30.4118182,26.1354545 30.2018182,26.7272727 L40.0909091,26.7272727 C41.1409091,26.7272727 42,25.8681818 42,24.8181818 L42,21.9545455 C42,17.5063636 33.0845455,15.2727273 28.6363636,15.2727273 Z" id="Shape"></path>
        </g>
        <g id="file_upload_black_24dp" transform="translate(836.000000, 1151.000000)" fill="#D2D2D2" fill-rule="nonzero">
            <path d="M5.31428571,14.9692227 L8.835,14.9692227 L8.835,26.0406513 C8.835,27.2585084 9.83142857,28.254937 11.0492857,28.254937 L19.9064286,28.254937 C21.1242857,28.254937 22.1207143,27.2585084 22.1207143,26.0406513 L22.1207143,14.9692227 L25.6414286,14.9692227 C27.6121429,14.9692227 28.6085714,12.5777941 27.2135714,11.1827941 L17.05,1.01922269 C16.1864286,0.155651261 14.7914286,0.155651261 13.9278571,1.01922269 L3.76428571,11.1827941 C2.36928571,12.5777941 3.34357143,14.9692227 5.31428571,14.9692227 Z M0,34.8977941 C0,36.1156513 0.996428571,37.1120798 2.21428571,37.1120798 L28.7857143,37.1120798 C30.0035714,37.1120798 31,36.1156513 31,34.8977941 C31,33.679937 30.0035714,32.6835084 28.7857143,32.6835084 L2.21428571,32.6835084 C0.996428571,32.6835084 0,33.679937 0,34.8977941 Z" id="Shape"></path>
        </g>
        <g id="Group-Copy-7" transform="translate(395.000000, 65.000000)">
            <mask id="mask-2" fill="white">
                <use xlink:href="#path-1"></use>
            </mask>
            <g id="Mask"></g>
            <g id="Group" mask="url(#mask-2)" fill="#DDDDDD" stroke="#181818">
                <g transform="translate(-6.315789, -6.315789)">
                    <rect id="Rectangle-1467-Copy-48" x="7.86842105" y="8.92105263" width="6.36842105" height="4.26315789"></rect>
                    <rect id="Rectangle-1474-Copy-28" x="14.1842105" y="0.5" width="4.26315789" height="21.1052632"></rect>
                    <rect id="Rectangle-1467-Copy-47" x="26.8157895" y="8.92105263" width="16.8947368" height="4.26315789"></rect>
                    <rect id="Rectangle-1474-Copy-27" x="33.1315789" y="0.5" width="4.26315789" height="21.1052632"></rect>
                    <rect id="Rectangle-1467-Copy-46" x="25.7631579" y="17.3421053" width="17.9473684" height="4.26315789"></rect>
                    <rect id="Rectangle-1474-Copy-26" x="23.6578947" y="0.5" width="4.26315789" height="31.6315789"></rect>
                    <rect id="Rectangle-1474-Copy-25" x="23.6578947" y="31.0263158" width="4.26315789" height="31.6315789"></rect>
                    <rect id="Rectangle-1467-Copy-45" x="18.3947368" y="8.92105263" width="14.7894737" height="4.26315789"></rect>
                    <rect id="Rectangle-1467-Copy-44" x="7.86842105" y="17.3421053" width="15.8421053" height="4.26315789"></rect>
                    <rect id="Rectangle-1467-Copy-43" x="7.86842105" y="26.8157895" width="20.0526316" height="4.26315789"></rect>
                    <rect id="Rectangle-1474-Copy-24" x="14.1842105" y="21.5526316" width="4.26315789" height="21.1052632"></rect>
                    <rect id="Rectangle-1467-Copy-42" x="26.8157895" y="26.8157895" width="16.8947368" height="4.26315789"></rect>
                    <rect id="Rectangle-1474-Copy-23" x="33.1315789" y="21.5526316" width="4.26315789" height="21.1052632"></rect>
                    <rect id="Rectangle-1467-Copy-41" x="27.8684211" y="35.2368421" width="15.8421053" height="4.26315789"></rect>
                    <rect id="Rectangle-1467-Copy-40" x="18.3947368" y="26.8157895" width="14.7894737" height="4.26315789"></rect>
                    <rect id="Rectangle-1467-Copy-39" x="7.86842105" y="35.2368421" width="15.8421053" height="4.26315789"></rect>
                    <rect id="Rectangle-1467-Copy-38" x="0.5" y="43.6578947" width="24.2631579" height="4.26315789"></rect>
                    <rect id="Rectangle-1474-Copy-22" x="14.1842105" y="39.4473684" width="4.26315789" height="21.1052632"></rect>
                    <rect id="Rectangle-1467-Copy-37" x="28.9210526" y="44.7105263" width="24.2631579" height="4.26315789"></rect>
                    <rect id="Rectangle-1474-Copy-21" x="33.1315789" y="39.4473684" width="4.26315789" height="21.1052632"></rect>
                    <rect id="Rectangle-1467-Copy-36" x="14.1842105" y="43.6578947" width="24.2631579" height="4.26315789"></rect>
                </g>
            </g>
        </g>
        <rect id="Rectangle-1080-Copy-22" fill="#444444" x="64" y="735" width="154" height="87"></rect>
        <rect id="Rectangle-1080-Copy-24" fill="#444444" x="380" y="686" width="154" height="136"></rect>
        <line x1="49" y1="665" x2="49.5216048" y2="833.999967" id="Line-3-Copy-3" stroke="#979797" stroke-linecap="square"></line>
        <rect id="Rectangle-1080-Copy-25" fill="#444444" x="222" y="778" width="154" height="44"></rect>
        <g id="Group" transform="translate(180.000000, 712.000000)" font-size="17">
            <text id="/10" font-family="HelveticaNeue-Medium, Helvetica Neue" font-weight="400" fill="#B0B0B0">
                <tspan x="11.5" y="17">/10</tspan>
            </text>
            <text id="0" font-family="HelveticaNeue, Helvetica Neue" font-weight="normal" fill="#FFFFFF">
                <tspan x="0" y="17">0</tspan>
            </text>
        </g>
        <g id="Group-Copy" transform="translate(348.000000, 755.000000)" font-size="17">
            <text id="/5" font-family="HelveticaNeue-Medium, Helvetica Neue" font-weight="400" fill="#B0B0B0">
                <tspan x="11.5" y="17">/5</tspan>
            </text>
            <text id="0" font-family="HelveticaNeue, Helvetica Neue" font-weight="normal" fill="#FFFFFF">
                <tspan x="0" y="17">0</tspan>
            </text>
        </g>
        <g id="Group-Copy-3" transform="translate(496.000000, 663.000000)" font-size="17">
            <text id="/18" font-family="HelveticaNeue-Medium, Helvetica Neue" font-weight="400" fill="#B0B0B0">
                <tspan x="11.5" y="17">/18</tspan>
            </text>
            <text id="0" font-family="HelveticaNeue, Helvetica Neue" font-weight="normal" fill="#FFFFFF">
                <tspan x="0" y="17">0</tspan>
            </text>
        </g>
        <line x1="218.5" y1="648.5" x2="218.5" y2="656.5" id="Line-5-Copy-17" stroke="#979797" stroke-linecap="square"></line>
        <line x1="378.5" y1="648.5" x2="378.5" y2="656.5" id="Line-5-Copy-16" stroke="#979797" stroke-linecap="square"></line>
        <line x1="233.5" y1="655" x2="365.5" y2="655" id="Line-6-Copy" stroke="#979797" stroke-linecap="square"></line>
        <line x1="73.5" y1="655" x2="205.5" y2="655" id="Line-6-Copy-3" stroke="#979797" stroke-linecap="square"></line>
        <line x1="391.5" y1="655" x2="523.5" y2="655" id="Line-6-Copy-2" stroke="#979797" stroke-linecap="square"></line>
        <rect id="Rectangle-1080-Copy-41" stroke="#FFFFFF" stroke-width="2" x="514" y="535" width="124" height="40" rx="1"></rect>
        <rect id="Rectangle-1080-Copy-40" stroke="#FFFFFF" stroke-width="2" x="386" y="535" width="124" height="40" rx="1"></rect>
        <rect id="Rectangle-1080-Copy-39" stroke="#FFFFFF" stroke-width="2" x="258" y="535" width="124" height="40" rx="1"></rect>
        <rect id="Rectangle-1080-Copy-38" stroke="#FFFFFF" stroke-width="2" x="130" y="535" width="124" height="40" rx="1"></rect>
        <rect id="Rectangle-1080-Copy-37" stroke="#3D6796" stroke-width="2" fill-opacity="0.32" fill="#3D6796" x="514" y="491" width="124" height="40" rx="1"></rect>
        <rect id="Rectangle-1080-Copy-36" stroke="#3D6796" stroke-width="2" fill-opacity="0.32" fill="#3D6796" x="386" y="491" width="124" height="40" rx="1"></rect>
        <rect id="Rectangle-1080-Copy-35" stroke="#3D6796" stroke-width="2" fill-opacity="0.32" fill="#3D6796" x="258" y="491" width="124" height="40" rx="1"></rect>
        <rect id="Rectangle-1080-Copy-34" stroke="#3D6796" stroke-width="2" fill-opacity="0.320940778" fill="#3D6796" x="130" y="491" width="124" height="40" rx="1"></rect>
        <rect id="Rectangle-1080-Copy-33" stroke="#979797" stroke-width="2" x="514" y="447" width="124" height="40" rx="1"></rect>
        <rect id="Rectangle-1080-Copy-32" stroke="#FFFFFF" stroke-width="2" x="386" y="447" width="124" height="40" rx="1"></rect>
        <rect id="Rectangle-1080-Copy-31" stroke="#FFFFFF" stroke-width="2" x="258" y="447" width="124" height="40" rx="1"></rect>
        <rect id="Rectangle-1080-Copy-30" stroke="#FFFFFF" stroke-width="2" x="130" y="447" width="124" height="40" rx="1"></rect>
        <rect id="Rectangle-1080-Copy-29" stroke="#979797" stroke-width="2" x="514" y="403" width="124" height="40" rx="1"></rect>
        <rect id="Rectangle-1080-Copy-28" stroke="#FFFFFF" stroke-width="2" x="386" y="403" width="124" height="40" rx="1"></rect>
        <rect id="Rectangle-1080-Copy-27" stroke="#FFFFFF" stroke-width="2" x="258" y="403" width="124" height="40" rx="1"></rect>
        <rect id="Rectangle-1080-Copy-26" stroke="#FFFFFF" stroke-width="2" x="130" y="403" width="124" height="40" rx="1"></rect>
        <g id="add_black_24dp" transform="translate(716.000000, 1153.000000)"></g>
        <path d="M505.571429,1172.42857 L493.428571,1172.42857 L493.428571,1184.57143 C493.428571,1185.90714 492.335714,1187 491,1187 C489.664286,1187 488.571429,1185.90714 488.571429,1184.57143 L488.571429,1172.42857 L476.428571,1172.42857 C475.092857,1172.42857 474,1171.33571 474,1170 C474,1168.66429 475.092857,1167.57143 476.428571,1167.57143 L488.571429,1167.57143 L488.571429,1155.42857 C488.571429,1154.09286 489.664286,1153 491,1153 C492.335714,1153 493.428571,1154.09286 493.428571,1155.42857 L493.428571,1167.57143 L505.571429,1167.57143 C506.907143,1167.57143 508,1168.66429 508,1170 C508,1171.33571 506.907143,1172.42857 505.571429,1172.42857 Z" id="Path" fill="#D2D2D2" fill-rule="nonzero"></path>
        <text id="180" font-family="HelveticaNeue, Helvetica Neue" font-size="18" font-weight="normal" letter-spacing="0.5" fill="#FFFFFF">
            <tspan x="140" y="430">180</tspan>
        </text>
        <text id="300" font-family="HelveticaNeue, Helvetica Neue" font-size="18" font-weight="normal" letter-spacing="0.5" fill="#FFFFFF">
            <tspan x="140" y="474">300</tspan>
        </text>
        <g id="Group-6" transform="translate(140.000000, 501.000000)" font-family="HelveticaNeue, Helvetica Neue" font-size="18" font-weight="normal" letter-spacing="0.5">
            <text id="10" fill="#FFFFFF">
                <tspan x="0" y="17">10</tspan>
            </text>
            <text id="0-copy" fill="#B0B0B0">
                <tspan x="50" y="17">0</tspan>
            </text>
        </g>
        <g id="Group-6-Copy" transform="translate(268.000000, 501.000000)" font-family="HelveticaNeue, Helvetica Neue" font-size="18" font-weight="normal" letter-spacing="0.5">
            <text id="5" fill="#FFFFFF">
                <tspan x="0" y="17">5</tspan>
            </text>
            <text id="0-copy" fill="#B0B0B0">
                <tspan x="49" y="17">0</tspan>
            </text>
        </g>
        <g id="Group-7" transform="translate(140.000000, 545.000000)" font-family="HelveticaNeue, Helvetica Neue" font-size="18" font-weight="normal" letter-spacing="0.5">
            <text id="10-copy" fill="#FFFFFF">
                <tspan x="0" y="17">10</tspan>
            </text>
            <text id="0" fill="#B0B0B0">
                <tspan x="50" y="17">0</tspan>
            </text>
        </g>
        <text id="180-copy" font-family="HelveticaNeue, Helvetica Neue" font-size="18" font-weight="normal" letter-spacing="0.5" fill="#FFFFFF">
            <tspan x="267" y="430">180</tspan>
        </text>
        <text id="200" font-family="HelveticaNeue, Helvetica Neue" font-size="18" font-weight="normal" letter-spacing="0.5" fill="#FFFFFF">
            <tspan x="267" y="474">200</tspan>
        </text>
        <g id="Group-7-Copy" transform="translate(267.000000, 545.000000)" font-family="HelveticaNeue, Helvetica Neue" font-size="18" font-weight="normal" letter-spacing="0.5">
            <text id="10-copy" fill="#FFFFFF">
                <tspan x="0" y="17">10</tspan>
            </text>
            <text id="0" fill="#B0B0B0">
                <tspan x="50" y="17">0</tspan>
            </text>
        </g>
        <g id="Group-6-Copy-2" transform="translate(397.000000, 501.000000)" font-family="HelveticaNeue, Helvetica Neue" font-size="18" font-weight="normal" letter-spacing="0.5">
            <text id="18" fill="#FFFFFF">
                <tspan x="0" y="17">18</tspan>
            </text>
            <text id="0-copy" fill="#B0B0B0">
                <tspan x="49" y="17">0</tspan>
            </text>
        </g>
        <text id="180-copy-2" font-family="HelveticaNeue, Helvetica Neue" font-size="18" font-weight="normal" letter-spacing="0.5" fill="#FFFFFF">
            <tspan x="396" y="430">180</tspan>
        </text>
        <text id="100" font-family="HelveticaNeue, Helvetica Neue" font-size="18" font-weight="normal" letter-spacing="0.5" fill="#FFFFFF">
            <tspan x="396" y="474">100</tspan>
        </text>
        <g id="Group-7-Copy-2" transform="translate(396.000000, 545.000000)" font-family="HelveticaNeue, Helvetica Neue" font-size="18" font-weight="normal" letter-spacing="0.5">
            <text id="10-copy" fill="#FFFFFF">
                <tspan x="0" y="17">10</tspan>
            </text>
            <text id="0" fill="#B0B0B0">
                <tspan x="50" y="17">0</tspan>
            </text>
        </g>
        <text id="Height" font-family="HelveticaNeue, Helvetica Neue" font-size="18" font-weight="normal" letter-spacing="0.5" fill="#FFFFFF">
            <tspan x="43" y="430">Height</tspan>
        </text>
        <text id="Size" font-family="HelveticaNeue, Helvetica Neue" font-size="18" font-weight="normal" letter-spacing="0.5" fill="#FFFFFF">
            <tspan x="43" y="388">Size</tspan>
        </text>
        <text id="New-marker" font-family="HelveticaNeue, Helvetica Neue" font-size="18" font-weight="normal" letter-spacing="0.5" fill="#FFFFFF">
            <tspan x="140" y="388">New marker</tspan>
        </text>
        <text id="New-marker-Copy" font-family="HelveticaNeue, Helvetica Neue" font-size="18" font-weight="normal" letter-spacing="0.5" fill="#FFFFFF">
            <tspan x="267" y="388">New marker</tspan>
        </text>
        <text id="New-marker-Copy-2" font-family="HelveticaNeue, Helvetica Neue" font-size="18" font-weight="normal" letter-spacing="0.5" fill="#FFFFFF">
            <tspan x="392" y="388">New marker</tspan>
        </text>
        <text id="3" font-family="HelveticaNeue, Helvetica Neue" font-size="18" font-weight="normal" letter-spacing="0.5" fill="#FFFFFF">
            <tspan x="522" y="388">3</tspan>
        </text>
        <text id="Sizes" font-family="HelveticaNeue, Helvetica Neue" font-size="18" font-weight="normal" letter-spacing="0.5" fill="#FFFFFF">
            <tspan x="650" y="388">Sizes</tspan>
        </text>
        <text id="Requirement" font-family="HelveticaNeue, Helvetica Neue" font-size="18" font-weight="normal" letter-spacing="0.5" fill="#FFFFFF">
            <tspan x="650" y="474">Requirement</tspan>
        </text>
        <text id="Color-1" font-family="HelveticaNeue, Helvetica Neue" font-size="18" font-weight="normal" letter-spacing="0.5" fill="#FFFFFF">
            <tspan x="650" y="518">Color 1</tspan>
        </text>
        <text id="33.00" font-family="HelveticaNeue, Helvetica Neue" font-size="18" font-weight="normal" letter-spacing="0.5" fill="#FFFFFF">
            <tspan x="524" y="518">33.00</tspan>
        </text>
        <text id="Color-2" font-family="HelveticaNeue, Helvetica Neue" font-size="18" font-weight="normal" letter-spacing="0.5" fill="#FFFFFF">
            <tspan x="650" y="562">Color 2</tspan>
        </text>
        <text id="30.00" font-family="HelveticaNeue, Helvetica Neue" font-size="18" font-weight="normal" letter-spacing="0.5" fill="#FFFFFF">
            <tspan x="524" y="562">30.00</tspan>
        </text>
        <text id="Offset" font-family="HelveticaNeue, Helvetica Neue" font-size="18" font-weight="normal" letter-spacing="0.5" fill="#FFFFFF">
            <tspan x="43" y="474">Offset</tspan>
        </text>
        <text id="Color-1" font-family="HelveticaNeue, Helvetica Neue" font-size="18" font-weight="normal" letter-spacing="0.5" fill="#FFFFFF">
            <tspan x="43" y="518">Color 1</tspan>
        </text>
        <text id="Color-2" font-family="HelveticaNeue, Helvetica Neue" font-size="18" font-weight="normal" letter-spacing="0.5" fill="#FFFFFF">
            <tspan x="43" y="562">Color 2</tspan>
        </text>
        <rect id="Rectangle-1080-Copy-9" fill="#222222" x="773" y="371" width="12" height="204"></rect>
        <rect id="Rectangle-1080-Copy-35" fill="#444444" x="773" y="377" width="12" height="87"></rect>
        <g id="save_black_24dp" transform="translate(715.000000, 1154.000000)" fill="#D2D2D2" fill-rule="nonzero">
            <path d="M25.9377778,1.04888889 C25.2622222,0.373333333 24.3555556,0 23.4133333,0 L3.55555556,0 C1.58222222,0 0,1.6 0,3.55555556 L0,28.4444444 C0,30.4 1.6,32 3.55555556,32 L28.4444444,32 C30.4,32 32,30.4 32,28.4444444 L32,8.58666667 C32,7.64444444 31.6266667,6.73777778 30.9511111,6.08 L25.9377778,1.04888889 Z M16,28.4444444 C13.0488889,28.4444444 10.6666667,26.0622222 10.6666667,23.1111111 C10.6666667,20.16 13.0488889,17.7777778 16,17.7777778 C18.9511111,17.7777778 21.3333333,20.16 21.3333333,23.1111111 C21.3333333,26.0622222 18.9511111,28.4444444 16,28.4444444 Z M17.7777778,10.6666667 L7.11111111,10.6666667 C5.15555556,10.6666667 3.55555556,9.06666667 3.55555556,7.11111111 C3.55555556,5.15555556 5.15555556,3.55555556 7.11111111,3.55555556 L17.7777778,3.55555556 C19.7333333,3.55555556 21.3333333,5.15555556 21.3333333,7.11111111 C21.3333333,9.06666667 19.7333333,10.6666667 17.7777778,10.6666667 Z" id="Shape"></path>
        </g>
        <g id="redo_black_24dp" transform="translate(611.500000, 1169.809524) scale(-1, 1) rotate(-43.000000) translate(-611.500000, -1169.809524) translate(591.000000, 1162.000000)" fill="#D2D2D2" fill-rule="nonzero">
            <path d="M33.9714286,5.07619048 C30.3595238,1.93285714 25.6738095,0 20.5,0 C12.3780952,0 5.38857143,4.7247619 2.06952381,11.577619 C1.4447619,12.8857143 2.14761905,14.447619 3.53380952,14.9161905 C4.68571429,15.3066667 5.9352381,14.76 6.46238095,13.6666667 C9.00047619,8.47333333 14.3304762,4.88095238 20.5,4.88095238 C24.3071429,4.88095238 27.782381,6.28666667 30.4961905,8.55142857 L26.7671429,12.2804762 C25.5371429,13.5104762 26.3961905,15.6190476 28.1338095,15.6190476 L39.047619,15.6190476 C40.1214286,15.6190476 41,14.7404762 41,13.6666667 L41,2.75285714 C41,1.0152381 38.8914286,0.136666667 37.6614286,1.36666667 L33.9714286,5.07619048 Z" id="Path"></path>
        </g>
    </g>
</svg>